<svg xmlns="http://www.w3.org/2000/svg" width="320" height="164" style=""><rect id="backgroundrect" width="100%" height="100%" x="0" y="0" fill="none" stroke="none" class="" style=""/>
 <style type="text/css">.st0{fill:#211915;}</style>

 <g style="">
  <title>background</title>
  <rect fill="none" id="canvas_background" height="322" width="10" y="-1" x="-1"/>
 </g>
 <g style="" class="currentLayer">
  <title>Layer 1</title>
  <path id="svg_1" d="m-37.8,-453.1" class="st0"/>
  
   
   
   
  
   
   
   
  
   
   
   
  
 
    
    
   <g class=""><g id="svg_18" transform="rotate(89.98453521728516 318.8367919921875,54.40679931640623) " class="">
    <g id="svg_4">
     <circle stroke-dasharray="2,2" id="svg_5" r="0.7431110739707947" cy="54.406792640686035" cx="277.55776050686836"/>
     <circle stroke-dasharray="2,2" id="svg_6" r="0.7431110739707947" cy="54.406792640686035" cx="285.05418995022774"/>
     <circle stroke-dasharray="2,2" id="svg_7" r="0.7431110739707947" cy="54.406792640686035" cx="292.5506193935871"/>
     <circle stroke-dasharray="2,2" id="svg_8" r="0.7431110739707947" cy="54.406792640686035" cx="300.0470488369465"/>
     <circle stroke-dasharray="2,2" id="svg_9" r="0.7431110739707947" cy="54.406792640686035" cx="307.54347828030586"/>
     <circle stroke-dasharray="2,2" id="svg_10" r="0.7431110739707947" cy="54.406792640686035" cx="315.03990772366524"/>
    </g>
    <g id="svg_11">
     <circle stroke-dasharray="2,2" id="svg_12" r="0.7431110739707947" cy="54.406792640686035" cx="322.636282235384"/>
     <circle stroke-dasharray="2,2" id="svg_13" r="0.7431110739707947" cy="54.406792640686035" cx="330.13271167874336"/>
     <circle stroke-dasharray="2,2" id="svg_14" r="0.7431110739707947" cy="54.406792640686035" cx="337.62914112210274"/>
     <circle stroke-dasharray="2,2" id="svg_15" r="0.7431110739707947" cy="54.406792640686035" cx="345.125540047884"/>
     <circle stroke-dasharray="2,2" id="svg_16" r="0.7431110739707947" cy="54.406792640686035" cx="352.62196949124336"/>
     <circle stroke-dasharray="2,2" id="svg_17" r="0.7431110739707947" cy="54.406792640686035" cx="360.11839893460274"/>
    </g>
   </g><g transform="rotate(89.98453521728516 318.7581176757812,121.97516632080078) " class="" id="svg_74">
    <g id="svg_76">
     <circle stroke-dasharray="2,2" id="svg_5" r="0.7431110739707947" cy="121.97511386871338" cx="277.4789641201496"/>
     <circle stroke-dasharray="2,2" id="svg_6" r="0.7431110739707947" cy="121.97511386871338" cx="284.975393563509"/>
     <circle stroke-dasharray="2,2" id="svg_7" r="0.7431110739707947" cy="121.97511386871338" cx="292.47182300686836"/>
     <circle stroke-dasharray="2,2" id="svg_8" r="0.7431110739707947" cy="121.97511386871338" cx="299.96825245022774"/>
     <circle stroke-dasharray="2,2" id="svg_9" r="0.7431110739707947" cy="121.97511386871338" cx="307.4646818935871"/>
     <circle stroke-dasharray="2,2" id="svg_10" r="0.7431110739707947" cy="121.97511386871338" cx="314.9611113369465"/>
    </g>
    <g id="svg_78">
     <circle stroke-dasharray="2,2" id="svg_12" r="0.7431110739707947" cy="121.97511386871338" cx="322.55748584866524"/>
     <circle stroke-dasharray="2,2" id="svg_13" r="0.7431110739707947" cy="121.97511386871338" cx="330.0539152920246"/>
     <circle stroke-dasharray="2,2" id="svg_14" r="0.7431110739707947" cy="121.97511386871338" cx="337.550344735384"/>
     <circle stroke-dasharray="2,2" id="svg_15" r="0.7431110739707947" cy="121.97511386871338" cx="345.04674366116524"/>
     <circle stroke-dasharray="2,2" id="svg_16" r="0.7431110739707947" cy="121.97511386871338" cx="352.5431731045246"/>
     <circle stroke-dasharray="2,2" id="svg_17" r="0.7431110739707947" cy="121.97511386871338" cx="360.039602547884"/>
    </g>
   </g></g></g>
</svg>