<svg xmlns="http://www.w3.org/2000/svg" width="320" height="164" style=""><rect id="backgroundrect" width="100%" height="100%" x="0" y="0" fill="none" stroke="none" class="" style=""/>
 <style type="text/css">.st0{fill:#211915;}</style>

 <g style="">
  <title>background</title>
  <rect fill="none" id="canvas_background" height="322" width="10" y="-1" x="-1"/>
 </g>
 <g style="" class="currentLayer">
  <title>Layer 1</title>
  <path id="svg_1" d="m-37.8,-453.1" class="st0"/>
  
   
   
   
  <g transform="rotate(0.03933641314506531 154.0174713135216,162.36587524411877) " class="" id="svg_57">
   <g id="svg_59">
    <g id="svg_4">
     <circle stroke-dasharray="2,2" id="svg_5" r="0.7431110739707947" cy="162.39682006835938" cx="0.7431108951568604"/>
     <circle stroke-dasharray="2,2" id="svg_6" r="0.7431110739707947" cy="162.39682006835938" cx="8.239537239074707"/>
     <circle stroke-dasharray="2,2" id="svg_7" r="0.7431110739707947" cy="162.39682006835938" cx="15.735963821411133"/>
     <circle stroke-dasharray="2,2" id="svg_8" r="0.7431110739707947" cy="162.39682006835938" cx="23.232389450073242"/>
     <circle stroke-dasharray="2,2" id="svg_9" r="0.7431110739707947" cy="162.39682006835938" cx="30.72882080078125"/>
     <circle stroke-dasharray="2,2" id="svg_10" r="0.7431110739707947" cy="162.39682006835938" cx="38.225250244140625"/>
    </g>
    <g id="svg_11">
     <circle stroke-dasharray="2,2" id="svg_12" r="0.7431110739707947" cy="162.39682006835938" cx="45.821632385253906"/>
     <circle stroke-dasharray="2,2" id="svg_13" r="0.7431110739707947" cy="162.39682006835938" cx="53.31806182861328"/>
     <circle stroke-dasharray="2,2" id="svg_14" r="0.7431110739707947" cy="162.39682006835938" cx="60.81447982788086"/>
     <circle stroke-dasharray="2,2" id="svg_15" r="0.7431110739707947" cy="162.39682006835938" cx="68.31090545654297"/>
     <circle stroke-dasharray="2,2" id="svg_16" r="0.7431110739707947" cy="162.39682006835938" cx="75.80733489990234"/>
     <circle stroke-dasharray="2,2" id="svg_17" r="0.7431110739707947" cy="162.39682006835938" cx="83.30376434326172"/>
    </g>
   </g>
   <g id="svg_61">
    <g id="svg_19" class="">
     <circle stroke-dasharray="2,2" id="svg_20" r="0.7431110739707947" cy="162.33493041992188" cx="89.49565124511719"/>
     <circle stroke-dasharray="2,2" id="svg_21" r="0.7431110739707947" cy="162.33493041992188" cx="96.9920883178711"/>
     <circle stroke-dasharray="2,2" id="svg_22" r="0.7431110739707947" cy="162.33493041992188" cx="104.48851013183594"/>
     <circle stroke-dasharray="2,2" id="svg_23" r="0.7431110739707947" cy="162.33493041992188" cx="111.98491668701172"/>
     <circle stroke-dasharray="2,2" id="svg_24" r="0.7431110739707947" cy="162.33493041992188" cx="119.48135375976562"/>
     <circle stroke-dasharray="2,2" id="svg_25" r="0.7431110739707947" cy="162.33493041992188" cx="126.97779846191406"/>
    </g>
    <g id="svg_26" class="">
     <circle stroke-dasharray="2,2" id="svg_27" r="0.7431110739707947" cy="162.33493041992188" cx="134.57415771484375"/>
     <circle stroke-dasharray="2,2" id="svg_28" r="0.7431110739707947" cy="162.33493041992188" cx="142.07058715820312"/>
     <circle stroke-dasharray="2,2" id="svg_29" r="0.7431110739707947" cy="162.33493041992188" cx="149.56703186035156"/>
     <circle stroke-dasharray="2,2" id="svg_30" r="0.7431110739707947" cy="162.33493041992188" cx="157.06344604492188"/>
     <circle stroke-dasharray="2,2" id="svg_31" r="0.7431110739707947" cy="162.33493041992188" cx="164.55987548828125"/>
     <circle stroke-dasharray="2,2" id="svg_32" r="0.7431110739707947" cy="162.33493041992188" cx="172.05630493164062"/>
    </g>
   </g>
   <g id="svg_63">
    <g id="svg_34">
     <g id="svg_35">
      <circle stroke-dasharray="2,2" id="svg_36" r="0.7431110739707947" cy="162.33493041992188" cx="179.75265502929688"/>
      <circle stroke-dasharray="2,2" id="svg_37" r="0.7431110739707947" cy="162.33493041992188" cx="187.24908447265625"/>
      <circle stroke-dasharray="2,2" id="svg_38" r="0.7431110739707947" cy="162.33493041992188" cx="194.74549865722656"/>
      <circle stroke-dasharray="2,2" id="svg_39" r="0.7431110739707947" cy="162.33493041992188" cx="202.24192810058594"/>
      <circle stroke-dasharray="2,2" id="svg_40" r="0.7431110739707947" cy="162.33493041992188" cx="209.7383575439453"/>
      <circle stroke-dasharray="2,2" id="svg_41" r="0.7431110739707947" cy="162.33493041992188" cx="217.23477172851562"/>
     </g>
     <g id="svg_42">
      <circle stroke-dasharray="2,2" id="svg_43" r="0.7431110739707947" cy="162.33493041992188" cx="224.73121643066406"/>
      <circle stroke-dasharray="2,2" id="svg_44" r="0.7431110739707947" cy="162.33493041992188" cx="232.22764587402344"/>
      <circle stroke-dasharray="2,2" id="svg_45" r="0.7431110739707947" cy="162.33493041992188" cx="239.72406005859375"/>
      <circle stroke-dasharray="2,2" id="svg_46" r="0.7431110739707947" cy="162.33493041992188" cx="247.2205047607422"/>
      <circle stroke-dasharray="2,2" id="svg_47" r="0.7431110739707947" cy="162.33493041992188" cx="254.7169189453125"/>
      <circle stroke-dasharray="2,2" id="svg_48" r="0.7431110739707947" cy="162.33493041992188" cx="262.2133483886719"/>
     </g>
    </g>
    <g id="svg_49">
     <g id="svg_50">
      <circle stroke-dasharray="2,2" id="svg_51" r="0.7431110739707947" cy="162.33493041992188" cx="269.8097229003906"/>
      <circle stroke-dasharray="2,2" id="svg_52" r="0.7431110739707947" cy="162.33493041992188" cx="277.30615234375"/>
      <circle stroke-dasharray="2,2" id="svg_53" r="0.7431110739707947" cy="162.33493041992188" cx="284.80255126953125"/>
      <circle stroke-dasharray="2,2" id="svg_54" r="0.7431110739707947" cy="162.33493041992188" cx="292.2989807128906"/>
      <circle stroke-dasharray="2,2" id="svg_55" r="0.7431110739707947" cy="162.33493041992188" cx="299.79541015625"/>
      <circle stroke-dasharray="2,2" id="svg_56" r="0.7431110739707947" cy="162.33493041992188" cx="307.2918395996094"/>
     </g>
    </g>
   </g>
  </g>
   
   
   
  
   
   
   
  
 
    
    
   <g class=""><g id="svg_18" transform="rotate(89.98453521728516 318.8367919921875,42.40119171142578) " class="">
    <g id="svg_4">
     <circle stroke-dasharray="2,2" id="svg_5" r="0.7431110739707947" cy="42.40118408203125" cx="277.55776050686836" transform=""/>
     <circle stroke-dasharray="2,2" id="svg_6" r="0.7431110739707947" cy="42.40118408203125" cx="285.05418995022774" transform=""/>
     <circle stroke-dasharray="2,2" id="svg_7" r="0.7431110739707947" cy="42.40118408203125" cx="292.5506193935871" transform=""/>
     <circle stroke-dasharray="2,2" id="svg_8" r="0.7431110739707947" cy="42.40118408203125" cx="300.0470488369465" transform=""/>
     <circle stroke-dasharray="2,2" id="svg_9" r="0.7431110739707947" cy="42.40118408203125" cx="307.54347828030586" transform=""/>
     <circle stroke-dasharray="2,2" id="svg_10" r="0.7431110739707947" cy="42.40118408203125" cx="315.03990772366524" transform=""/>
    </g>
    <g id="svg_11">
     <circle stroke-dasharray="2,2" id="svg_12" r="0.7431110739707947" cy="42.40118408203125" cx="322.636282235384" transform=""/>
     <circle stroke-dasharray="2,2" id="svg_13" r="0.7431110739707947" cy="42.40118408203125" cx="330.13271167874336" transform=""/>
     <circle stroke-dasharray="2,2" id="svg_14" r="0.7431110739707947" cy="42.40118408203125" cx="337.62914112210274" transform=""/>
     <circle stroke-dasharray="2,2" id="svg_15" r="0.7431110739707947" cy="42.40118408203125" cx="345.125540047884" transform=""/>
     <circle stroke-dasharray="2,2" id="svg_16" r="0.7431110739707947" cy="42.40118408203125" cx="352.62196949124336" transform=""/>
     <circle stroke-dasharray="2,2" id="svg_17" r="0.7431110739707947" cy="42.40118408203125" cx="360.11839893460274" transform=""/>
    </g>
   </g><g transform="rotate(89.98453521728516 318.75811767578125,109.96955871582033) " class="" id="svg_74">
    <g id="svg_76">
     <circle stroke-dasharray="2,2" id="svg_5" r="0.7431110739707947" cy="109.9695053100586" cx="277.4789641201496"/>
     <circle stroke-dasharray="2,2" id="svg_6" r="0.7431110739707947" cy="109.9695053100586" cx="284.975393563509"/>
     <circle stroke-dasharray="2,2" id="svg_7" r="0.7431110739707947" cy="109.9695053100586" cx="292.47182300686836"/>
     <circle stroke-dasharray="2,2" id="svg_8" r="0.7431110739707947" cy="109.9695053100586" cx="299.96825245022774"/>
     <circle stroke-dasharray="2,2" id="svg_9" r="0.7431110739707947" cy="109.9695053100586" cx="307.4646818935871"/>
     <circle stroke-dasharray="2,2" id="svg_10" r="0.7431110739707947" cy="109.9695053100586" cx="314.9611113369465"/>
    </g>
    <g id="svg_78">
     <circle stroke-dasharray="2,2" id="svg_12" r="0.7431110739707947" cy="109.9695053100586" cx="322.55748584866524"/>
     <circle stroke-dasharray="2,2" id="svg_13" r="0.7431110739707947" cy="109.9695053100586" cx="330.0539152920246"/>
     <circle stroke-dasharray="2,2" id="svg_14" r="0.7431110739707947" cy="109.9695053100586" cx="337.550344735384"/>
     <circle stroke-dasharray="2,2" id="svg_15" r="0.7431110739707947" cy="109.9695053100586" cx="345.04674366116524"/>
     <circle stroke-dasharray="2,2" id="svg_16" r="0.7431110739707947" cy="109.9695053100586" cx="352.5431731045246"/>
     <circle stroke-dasharray="2,2" id="svg_17" r="0.7431110739707947" cy="109.9695053100586" cx="360.039602547884"/>
    </g>
   </g></g></g>
</svg>