<svg xmlns="http://www.w3.org/2000/svg" width="320" height="164" style=""><rect id="backgroundrect" width="100%" height="100%" x="0" y="0" fill="none" stroke="none" class="" style=""/>
 <style type="text/css">.st0{fill:#211915;}</style>

 <g style="">
  <title>background</title>
  <rect fill="none" id="canvas_background" height="322" width="10" y="-1" x="-1"/>
 </g>
 <g style="" class="currentLayer">
  <title>Layer 1</title>
  <path id="svg_1" d="m-37.8,-453.1" class="st0"/>
  
   
   
   
  <g transform="rotate(0.03933641314506531 165.98249816893943,162.36587524415177) " class="" id="svg_57">
   <g id="svg_59">
    <g id="svg_4">
     <circle stroke-dasharray="2,2" id="svg_5" r="0.7431110739707947" cy="162.39682006835938" cx="12.70813775062561"/>
     <circle stroke-dasharray="2,2" id="svg_6" r="0.7431110739707947" cy="162.39682006835938" cx="20.204564094543457"/>
     <circle stroke-dasharray="2,2" id="svg_7" r="0.7431110739707947" cy="162.39682006835938" cx="27.700990676879883"/>
     <circle stroke-dasharray="2,2" id="svg_8" r="0.7431110739707947" cy="162.39682006835938" cx="35.19741630554199"/>
     <circle stroke-dasharray="2,2" id="svg_9" r="0.7431110739707947" cy="162.39682006835938" cx="42.69384765625"/>
     <circle stroke-dasharray="2,2" id="svg_10" r="0.7431110739707947" cy="162.39682006835938" cx="50.190277099609375"/>
    </g>
    <g id="svg_11">
     <circle stroke-dasharray="2,2" id="svg_12" r="0.7431110739707947" cy="162.39682006835938" cx="57.786659240722656"/>
     <circle stroke-dasharray="2,2" id="svg_13" r="0.7431110739707947" cy="162.39682006835938" cx="65.28308868408203"/>
     <circle stroke-dasharray="2,2" id="svg_14" r="0.7431110739707947" cy="162.39682006835938" cx="72.77950668334961"/>
     <circle stroke-dasharray="2,2" id="svg_15" r="0.7431110739707947" cy="162.39682006835938" cx="80.27593231201172"/>
     <circle stroke-dasharray="2,2" id="svg_16" r="0.7431110739707947" cy="162.39682006835938" cx="87.7723617553711"/>
     <circle stroke-dasharray="2,2" id="svg_17" r="0.7431110739707947" cy="162.39682006835938" cx="95.26879119873047"/>
    </g>
   </g>
   <g id="svg_61">
    <g id="svg_19">
     <circle stroke-dasharray="2,2" id="svg_20" r="0.7431110739707947" cy="162.33493041992188" cx="101.46067810058594"/>
     <circle stroke-dasharray="2,2" id="svg_21" r="0.7431110739707947" cy="162.33493041992188" cx="108.95711517333984"/>
     <circle stroke-dasharray="2,2" id="svg_22" r="0.7431110739707947" cy="162.33493041992188" cx="116.45353698730469"/>
     <circle stroke-dasharray="2,2" id="svg_23" r="0.7431110739707947" cy="162.33493041992188" cx="123.94994354248047"/>
     <circle stroke-dasharray="2,2" id="svg_24" r="0.7431110739707947" cy="162.33493041992188" cx="131.44638061523438"/>
     <circle stroke-dasharray="2,2" id="svg_25" r="0.7431110739707947" cy="162.33493041992188" cx="138.9428253173828"/>
    </g>
    <g id="svg_26">
     <circle stroke-dasharray="2,2" id="svg_27" r="0.7431110739707947" cy="162.33493041992188" cx="146.5391845703125"/>
     <circle stroke-dasharray="2,2" id="svg_28" r="0.7431110739707947" cy="162.33493041992188" cx="154.03561401367188"/>
     <circle stroke-dasharray="2,2" id="svg_29" r="0.7431110739707947" cy="162.33493041992188" cx="161.5320587158203"/>
     <circle stroke-dasharray="2,2" id="svg_30" r="0.7431110739707947" cy="162.33493041992188" cx="169.02847290039062"/>
     <circle stroke-dasharray="2,2" id="svg_31" r="0.7431110739707947" cy="162.33493041992188" cx="176.52490234375"/>
     <circle stroke-dasharray="2,2" id="svg_32" r="0.7431110739707947" cy="162.33493041992188" cx="184.02133178710938"/>
    </g>
   </g>
   <g id="svg_63">
    <g id="svg_34">
     <g id="svg_35">
      <circle stroke-dasharray="2,2" id="svg_36" r="0.7431110739707947" cy="162.33493041992188" cx="191.71768188476562"/>
      <circle stroke-dasharray="2,2" id="svg_37" r="0.7431110739707947" cy="162.33493041992188" cx="199.214111328125"/>
      <circle stroke-dasharray="2,2" id="svg_38" r="0.7431110739707947" cy="162.33493041992188" cx="206.7105255126953"/>
      <circle stroke-dasharray="2,2" id="svg_39" r="0.7431110739707947" cy="162.33493041992188" cx="214.2069549560547"/>
      <circle stroke-dasharray="2,2" id="svg_40" r="0.7431110739707947" cy="162.33493041992188" cx="221.70338439941406"/>
      <circle stroke-dasharray="2,2" id="svg_41" r="0.7431110739707947" cy="162.33493041992188" cx="229.19979858398438"/>
     </g>
     <g id="svg_42">
      <circle stroke-dasharray="2,2" id="svg_43" r="0.7431110739707947" cy="162.33493041992188" cx="236.6962432861328"/>
      <circle stroke-dasharray="2,2" id="svg_44" r="0.7431110739707947" cy="162.33493041992188" cx="244.1926727294922"/>
      <circle stroke-dasharray="2,2" id="svg_45" r="0.7431110739707947" cy="162.33493041992188" cx="251.6890869140625"/>
      <circle stroke-dasharray="2,2" id="svg_46" r="0.7431110739707947" cy="162.33493041992188" cx="259.18553161621094"/>
      <circle stroke-dasharray="2,2" id="svg_47" r="0.7431110739707947" cy="162.33493041992188" cx="266.68194580078125"/>
      <circle stroke-dasharray="2,2" id="svg_48" r="0.7431110739707947" cy="162.33493041992188" cx="274.1783752441406"/>
     </g>
    </g>
    <g id="svg_49">
     <g id="svg_50">
      <circle stroke-dasharray="2,2" id="svg_51" r="0.7431110739707947" cy="162.33493041992188" cx="281.7747497558594"/>
      <circle stroke-dasharray="2,2" id="svg_52" r="0.7431110739707947" cy="162.33493041992188" cx="289.27117919921875"/>
      <circle stroke-dasharray="2,2" id="svg_53" r="0.7431110739707947" cy="162.33493041992188" cx="296.767578125"/>
      <circle stroke-dasharray="2,2" id="svg_54" r="0.7431110739707947" cy="162.33493041992188" cx="304.2640075683594"/>
      <circle stroke-dasharray="2,2" id="svg_55" r="0.7431110739707947" cy="162.33493041992188" cx="311.76043701171875"/>
      <circle stroke-dasharray="2,2" id="svg_56" r="0.7431110739707947" cy="162.33493041992188" cx="319.2568664550781"/>
     </g>
    </g>
   </g>
  </g>
   
   
   
  
 
    
    
   </g>
</svg>